<?xml version="1.0" encoding="UTF-8"?>
<svg version="1.1" xmlns="http://www.w3.org/2000/svg" width="160" height="148">
<path d="M0 0 C52.8 0 105.6 0 160 0 C160 48.84 160 97.68 160 148 C107.2 148 54.4 148 0 148 C0 99.16 0 50.32 0 0 Z " fill="#FBFBFB" transform="translate(0,0)"/>
<path d="M0 0 C21.12 0 42.24 0 64 0 C63.34 0.33 62.68 0.66 62 1 C62 3.31 62 5.62 62 8 C61.01 8.33 60.02 8.66 59 9 C58.08903883 13.35237003 58.04363945 17.01649768 58.53125 21.4375 C59.33131549 31.0808929 58.60536298 40.66894489 58.0625 50.3125 C57.96082278 52.22847514 57.85990565 54.14449078 57.75976562 56.06054688 C57.51526245 60.7075441 57.26050958 65.35387374 57 70 C54.525 70.495 54.525 70.495 52 71 C51.505 72.485 51.505 72.485 51 74 C51 68.06 51 62.12 51 56 C50.34 56 49.68 56 49 56 C49 51.05 49 46.1 49 41 C47.02 41 45.04 41 43 41 C43.33 41.99 43.66 42.98 44 44 C44.09475844 45.95648317 44.12988471 47.91622955 44.125 49.875 C44.12886719 51.41800781 44.12886719 51.41800781 44.1328125 52.9921875 C44.00995061 55.774648 43.62944236 58.29239874 43 61 C41.68 61 40.36 61 39 61 C39 62.65 39 64.3 39 66 C38.01 66 37.02 66 36 66 C35.505 67.485 35.505 67.485 35 69 C35 68.34 35 67.68 35 67 C34.195625 67.020625 33.39125 67.04125 32.5625 67.0625 C30 67 30 67 29 66 C28.67 71.28 28.34 76.56 28 82 C24.04 82 20.08 82 16 82 C16 84.31 16 86.62 16 89 C20.29 89 24.58 89 29 89 C30.06451462 93.25805848 29.79471489 94.40131169 28.5625 98.4375 C26.04486574 107.93953897 25.61038818 117.05194514 30 126 C31.82100147 128.19920496 31.82100147 128.19920496 34.375 128.4375 C37.18323224 128.22548691 37.18323224 128.22548691 39.1875 125.875 C41.0257469 122.9591601 42.07633452 120.30980131 43 117 C43.33 117 43.66 117 44 117 C44 120.63 44 124.26 44 128 C44.66 128 45.32 128 46 128 C46.05607422 127.14341797 46.05607422 127.14341797 46.11328125 126.26953125 C46.83069682 117.42140594 47.68486533 107.37304578 53 100 C53.66 100 54.32 100 55 100 C55.99176352 102.97529057 56.18040117 105.14073493 56.28125 108.25390625 C56.31863281 109.27291016 56.35601562 110.29191406 56.39453125 111.34179688 C56.46497153 113.49283436 56.53528357 115.64387605 56.60546875 117.79492188 C56.66154297 119.32149414 56.66154297 119.32149414 56.71875 120.87890625 C56.74904297 121.8129126 56.77933594 122.74691895 56.81054688 123.70922852 C56.85938968 126.02875608 56.85938968 126.02875608 58 128 C58.66 128 59.32 128 60 128 C60.99 125.36 61.98 122.72 63 120 C64.9451 122.91765 65.45276317 124.62537285 66 128 C67.32 128 68.64 128 70 128 C70.12375 127.195625 70.2475 126.39125 70.375 125.5625 C70.58125 124.716875 70.7875 123.87125 71 123 C71.66 122.67 72.32 122.34 73 122 C73.66 123.65 74.32 125.3 75 127 C77.87364791 127.41746608 77.87364791 127.41746608 81 127 C82.82605543 124.67881567 82.82605543 124.67881567 84 122 C84.66 121.34 85.32 120.68 86 120 C86.99 123.465 86.99 123.465 88 127 C89.32 127 90.64 127 92 127 C92.99 125.02 92.99 125.02 94 123 C94.66 123 95.32 123 96 123 C96.33 124.32 96.66 125.64 97 127 C98.65 127 100.3 127 102 127 C102.66 125.35 103.32 123.7 104 122 C106 125 106 125 107 127 C109.52733235 127.65555119 109.52733235 127.65555119 112 128 C112.66 125.36 113.32 122.72 114 120 C114.33 120 114.66 120 115 120 C115.35129097 124.92539209 114.42093887 127.67283685 112 131.9375 C109.48189134 136.68407571 108.27484311 139.68218277 109 145 C110.32 145 111.64 145 113 145 C113.66 143.68 114.32 142.36 115 141 C115.5625 142.9375 115.5625 142.9375 116 145 C115.67 145.33 115.34 145.66 115 146 C115.33 146.66 115.66 147.32 116 148 C77.72 148 39.44 148 0 148 C0 99.16 0 50.32 0 0 Z " fill="#FCFCFC" transform="translate(0,0)"/>
<path d="M0 0 C0.33 0 0.66 0 1 0 C1 3.96 1 7.92 1 12 C1.99 12 2.98 12 4 12 C4 8.04 4 4.08 4 0 C4.33 0 4.66 0 5 0 C5 3.96 5 7.92 5 12 C5.66 12 6.32 12 7 12 C7.495 20.91 7.495 20.91 8 30 C8.99 30 9.98 30 11 30 C11 31.98 11 33.96 11 36 C12.32 36 13.64 36 15 36 C15.33 46.56 15.66 57.12 16 68 C19.3 68.33 22.6 68.66 26 69 C26 70.65 26 72.3 26 74 C-5.68 74 -37.36 74 -70 74 C-70.66 71.36 -71.32 68.72 -72 66 C-71.34 66 -70.68 66 -70 66 C-70 63.03 -70 60.06 -70 57 C-67.525 56.505 -67.525 56.505 -65 56 C-65.01047363 55.43007324 -65.02094727 54.86014648 -65.03173828 54.27294922 C-65.30556532 36.75148509 -64.35051237 19.4560907 -63 2 C-61.35 2 -59.7 2 -58 2 C-58 6.29 -58 10.58 -58 15 C-57.34 15 -56.68 15 -56 15 C-56 20.94 -56 26.88 -56 33 C-55.34 33 -54.68 33 -54 33 C-53.67 40.26 -53.34 47.52 -53 55 C-52.01 55 -51.02 55 -50 55 C-49.67 51.37 -49.34 47.74 -49 44 C-47.02 44 -45.04 44 -43 44 C-42.67 43.01 -42.34 42.02 -42 41 C-42 42.32 -42 43.64 -42 45 C-41.34 45 -40.68 45 -40 45 C-40.01160156 44.31292969 -40.02320312 43.62585937 -40.03515625 42.91796875 C-40.04417969 42.01691406 -40.05320312 41.11585937 -40.0625 40.1875 C-40.07410156 39.29417969 -40.08570312 38.40085938 -40.09765625 37.48046875 C-40 35 -40 35 -39 32 C-37.35 32 -35.7 32 -34 32 C-33.34 34.64 -32.68 37.28 -32 40 C-31.34 39.67 -30.68 39.34 -30 39 C-30.33 40.65 -30.66 42.3 -31 44 C-28.69 44 -26.38 44 -24 44 C-24 44.99 -24 45.98 -24 47 C-23.01 47 -22.02 47 -21 47 C-20.67 42.38 -20.34 37.76 -20 33 C-17.03 32.505 -17.03 32.505 -14 32 C-13.67 30.68 -13.34 29.36 -13 28 C-13 29.32 -13 30.64 -13 32 C-11.68 32 -10.36 32 -9 32 C-9 29.69 -9 27.38 -9 25 C-8.67 25 -8.34 25 -8 25 C-8 27.64 -8 30.28 -8 33 C-7.34 33 -6.68 33 -6 33 C-6 36.3 -6 39.6 -6 43 C-5.01 43 -4.02 43 -3 43 C-3.00523682 42.41621582 -3.01047363 41.83243164 -3.01586914 41.23095703 C-3.03694081 38.52898276 -3.04975459 35.82702589 -3.0625 33.125 C-3.07087891 32.2071875 -3.07925781 31.289375 -3.08789062 30.34375 C-3.10964173 24.1664353 -2.73930108 18.13278165 -2 12 C-1.34 12 -0.68 12 0 12 C0 8.04 0 4.08 0 0 Z " fill="#050505" transform="translate(122,14)"/>
<path d="M0 0 C0 4.95 0 9.9 0 15 C0.66 15 1.32 15 2 15 C2.06058594 16.25296875 2.12117188 17.5059375 2.18359375 18.796875 C2.26802256 20.44792724 2.35266939 22.09896835 2.4375 23.75 C2.47681641 24.575 2.51613281 25.4 2.55664062 26.25 C2.59853516 27.04921875 2.64042969 27.8484375 2.68359375 28.671875 C2.73858032 29.77160645 2.73858032 29.77160645 2.79467773 30.89355469 C2.9435568 33.02834777 2.9435568 33.02834777 3.58227539 35.14550781 C4 37 4 37 3 39 C2.34 39 1.68 39 1 39 C1.495 39.86625 1.495 39.86625 2 40.75 C3 43 3 43 3 47 C3.71306808 46.92640762 4.42613617 46.85281525 5.16081238 46.7769928 C15.27117369 45.85637012 25.28521465 45.96358413 35.42578125 46.12109375 C37.26807501 46.14545224 39.11037568 46.16929271 40.9526825 46.19264221 C45.757965 46.2549141 50.56312215 46.324136 55.36828613 46.39489746 C60.28908673 46.46610105 65.2099749 46.53060461 70.13085938 46.59570312 C79.75400253 46.72397992 89.37702642 46.85961274 99 47 C99 45.35 99 43.7 99 42 C95.7 42 92.4 42 89 42 C89 41.67 89 41.34 89 41 C92.63 41 96.26 41 100 41 C100 43.31 100 45.62 100 48 C72.94 48.33 45.88 48.66 18 49 C18.33 49.33 18.66 49.66 19 50 C19.04092937 52.33297433 19.04241723 54.66705225 19 57 C18.34 57 17.68 57 17 57 C17.495 63.93 17.495 63.93 18 71 C19.32 71 20.64 71 22 71 C22.24234375 70.24074219 22.4846875 69.48148437 22.734375 68.69921875 C23.06953125 67.70535156 23.4046875 66.71148437 23.75 65.6875 C24.07484375 64.70136719 24.3996875 63.71523437 24.734375 62.69921875 C26.10087977 59.7848521 27.29348026 58.66598799 30 57 C31.32 57.66 32.64 58.32 34 59 C34 59.99 34 60.98 34 62 C33.34 62 32.68 62 32 62 C32 61.01 32 60.02 32 59 C28.21965377 62.47736026 28.21965377 62.47736026 26 67 C25.92948886 69.73865287 25.90642235 72.45027588 25.9375 75.1875 C25.94201172 75.93708984 25.94652344 76.68667969 25.95117188 77.45898438 C25.96293646 79.30602383 25.98087135 81.15302213 26 83 C28.97 83.99 28.97 83.99 32 85 C32.28875 84.13375 32.5775 83.2675 32.875 82.375 C33.56461166 80.30616503 34.26942983 78.24222859 35 76.1875 C35.81041092 73.60431518 36.40151992 71.1444637 36.9375 68.5 C37.78753485 64.62907205 38.75357494 61.32803713 41 58 C43.84326289 57.00485799 45.98917234 57 49 57 C49 64.59 49 72.18 49 80 C48.34 79.01 47.68 78.02 47 77 C46.01 79.97 45.02 82.94 44 86 C42.35 86.33 40.7 86.66 39 87 C38.01 85.02 37.02 83.04 36 81 C35.525625 81.804375 35.05125 82.60875 34.5625 83.4375 C33 86 33 86 32 87 C29.125 87.375 29.125 87.375 26 87 C24.125 84.5 24.125 84.5 23 82 C22.34 83.65 21.68 85.3 21 87 C19.68 87 18.36 87 17 87 C16.34 85.35 15.68 83.7 15 82 C14.34 82.99 13.68 83.98 13 85 C12.34 85.99 11.68 86.98 11 88 C10.01 87.67 9.02 87.34 8 87 C6.65893595 84.3178719 6.78549581 82.11601968 6.68359375 79.1171875 C6.64169922 77.95058594 6.59980469 76.78398438 6.55664062 75.58203125 C6.51732422 74.35871094 6.47800781 73.13539062 6.4375 71.875 C6.39431641 70.64394531 6.35113281 69.41289063 6.30664062 68.14453125 C6.20031296 65.09647147 6.09828219 62.0483281 6 59 C5.34 59 4.68 59 4 59 C2.51689738 62.47619406 1.49529871 65.82477714 0.7109375 69.51953125 C0.38222656 71.0519043 0.38222656 71.0519043 0.046875 72.61523438 C-0.28570312 74.19788086 -0.28570312 74.19788086 -0.625 75.8125 C-0.85445312 76.88693359 -1.08390625 77.96136719 -1.3203125 79.06835938 C-1.88416646 81.71142483 -2.44392131 84.35528974 -3 87 C-3.66 87 -4.32 87 -5 87 C-5.33 84.69 -5.66 82.38 -6 80 C-6.61875 80.94875 -7.2375 81.8975 -7.875 82.875 C-10 86 -10 86 -12 88 C-15.19621722 88.50466588 -16.53266175 88.33381304 -19.1875 86.4375 C-24.05818538 79.88726794 -23.61486247 71.83281326 -23 64 C-22.35709712 60.76318841 -21.57379408 57.62986289 -20.65625 54.4609375 C-19.87116867 51.94137168 -19.87116867 51.94137168 -20 49 C-24.29 48.67 -28.58 48.34 -33 48 C-33 45.69 -33 43.38 -33 41 C-29.04 41 -25.08 41 -21 41 C-21 34.4 -21 27.8 -21 21 C-20.34 22.32 -19.68 23.64 -19 25 C-15.6813976 26.13531135 -13.31010574 26.10336858 -10 25 C-10 23.35 -10 21.7 -10 20 C-8.68 20 -7.36 20 -6 20 C-6 13.4 -6 6.8 -6 0 C-4 -1 -4 -1 0 0 Z " fill="#050505" transform="translate(49,41)"/>
<path d="M0 0 C0.66 0 1.32 0 2 0 C2 2.97 2 5.94 2 9 C2.66 7.35 3.32 5.7 4 4 C7.63 4 11.26 4 15 4 C14.67 5.65 14.34 7.3 14 9 C14.66 9 15.32 9 16 9 C16 9.66 16 10.32 16 11 C19.11332248 10.33131686 19.11332248 10.33131686 20.1875 7.9375 C20.455625 7.298125 20.72375 6.65875 21 6 C21 8.31 21 10.62 21 13 C20.34 13 19.68 13 19 13 C19.495 19.93 19.495 19.93 20 27 C21.32 27 22.64 27 24 27 C24.24234375 26.24074219 24.4846875 25.48148438 24.734375 24.69921875 C25.06953125 23.70535156 25.4046875 22.71148437 25.75 21.6875 C26.07484375 20.70136719 26.3996875 19.71523437 26.734375 18.69921875 C28.10087977 15.7848521 29.29348026 14.66598799 32 13 C33.32 13.66 34.64 14.32 36 15 C36 15.99 36 16.98 36 18 C35.34 18 34.68 18 34 18 C34 17.01 34 16.02 34 15 C30.21965377 18.47736026 30.21965377 18.47736026 28 23 C27.92948886 25.73865287 27.90642235 28.45027588 27.9375 31.1875 C27.94201172 31.93708984 27.94652344 32.68667969 27.95117188 33.45898438 C27.96293646 35.30602383 27.98087135 37.15302213 28 39 C29.98 39.66 31.96 40.32 34 41 C34.28875 40.13375 34.5775 39.2675 34.875 38.375 C35.56461166 36.30616503 36.26942983 34.24222859 37 32.1875 C37.81041092 29.60431518 38.40151992 27.1444637 38.9375 24.5 C39.78753485 20.62907205 40.75357494 17.32803713 43 14 C45.84326289 13.00485799 47.98917234 13 51 13 C51 20.59 51 28.18 51 36 C50.34 35.01 49.68 34.02 49 33 C48.01 35.97 47.02 38.94 46 42 C43.525 42.495 43.525 42.495 41 43 C40.01 41.02 39.02 39.04 38 37 C37.525625 37.804375 37.05125 38.60875 36.5625 39.4375 C35 42 35 42 34 43 C31.125 43.375 31.125 43.375 28 43 C26.125 40.5 26.125 40.5 25 38 C24.01 40.475 24.01 40.475 23 43 C21.68 43 20.36 43 19 43 C18.34 41.35 17.68 39.7 17 38 C16.34 38.99 15.68 39.98 15 41 C14.34 41.99 13.68 42.98 13 44 C12.01 43.67 11.02 43.34 10 43 C8.65893595 40.3178719 8.78549581 38.11601968 8.68359375 35.1171875 C8.62075195 33.36728516 8.62075195 33.36728516 8.55664062 31.58203125 C8.51732422 30.35871094 8.47800781 29.13539062 8.4375 27.875 C8.39431641 26.64394531 8.35113281 25.41289063 8.30664062 24.14453125 C8.20031296 21.09647147 8.09828219 18.0483281 8 15 C7.34 15 6.68 15 6 15 C4.92474806 17.65228812 3.90543849 20.28368454 3 23 C2.34 23 1.68 23 1 23 C0.87625 24.27875 0.7525 25.5575 0.625 26.875 C0.25 30.75 0.25 30.75 -2 33 C-2.3690205 22.44191344 -2.3690205 22.44191344 0 18 C-0.66 18 -1.32 18 -2 18 C-2.2361959 11.59646678 -1.823321 6.15370839 0 0 Z " fill="#F6F6F6" transform="translate(47,85)"/>
<path d="M0 0 C0 0.99 0 1.98 0 3 C0.99 3 1.98 3 3 3 C3 3.99 3 4.98 3 6 C5.475 6.495 5.475 6.495 8 7 C9.5304157 13.99618607 10.3171587 19.9751536 9 27 C5.37 27.33 1.74 27.66 -2 28 C-2 32.95 -2 37.9 -2 43 C-3.32 42.67 -4.64 42.34 -6 42 C-6 41.01 -6 40.02 -6 39 C-8.31 39 -10.62 39 -13 39 C-13 37.68 -13 36.36 -13 35 C-13.99 35.495 -13.99 35.495 -15 36 C-15.33 33.03 -15.66 30.06 -16 27 C-17.65 27 -19.3 27 -21 27 C-21.33 27.99 -21.66 28.98 -22 30 C-22 29.34 -22 28.68 -22 28 C-23.65 28.33 -25.3 28.66 -27 29 C-27.10251672 23.87416389 -27.03590199 19.05002222 -26 14 C-25.34 14 -24.68 14 -24 14 C-23.7834375 12.8553125 -23.7834375 12.8553125 -23.5625 11.6875 C-23 9 -23 9 -22 6 C-21.34 6 -20.68 6 -20 6 C-19.979375 5.401875 -19.95875 4.80375 -19.9375 4.1875 C-19 2 -19 2 -15.9375 0.25 C-10.77552761 -1.704327 -5.26782884 -1.75594295 0 0 Z " fill="#C1C1C1" transform="translate(104,19)"/>
<path d="M0 0 C2.64 0 5.28 0 8 0 C8.33 7.92 8.66 15.84 9 24 C11.92380537 18.15238926 12.63166556 14.42202229 13.27734375 8.12109375 C14.11056717 4.52246937 15.52074898 2.68961171 18 0 C21.01802393 0.32627286 22.59691281 0.61081236 24.8125 2.75 C26.19608294 5.37152557 26.24360427 7.07674878 26 10 C24.45428722 7.68143083 23.20381448 5.49361571 22 3 C20.68 3 19.36 3 18 3 C16.40020294 6.19959413 16.50392616 9.5274831 17 13 C19.42368343 16.41111001 22.07882724 17.69294241 26 19 C26 16.36 26 13.72 26 11 C26.33 11 26.66 11 27 11 C27 12.98 27 14.96 27 17 C29.7839183 15.60804085 29.97898997 13.84424221 31 11 C31.33 11 31.66 11 32 11 C32.25 13.25 32.25 13.25 32 16 C31.4225 16.556875 30.845 17.11375 30.25 17.6875 C26.85424571 21.1775808 25.62508873 25.47049736 24 30 C21.36 30 18.72 30 16 30 C14.515 26.535 14.515 26.535 13 23 C7.54739605 27.87864564 7.15476835 32.62709265 6.45703125 39.7578125 C6.04544539 42.67760964 5.50668938 44.50745213 4 47 C2.68 47 1.36 47 0 47 C-1.28396001 42.9646971 -1.41314244 40.97501616 0.26953125 37.00390625 C1.36468348 34.90849788 2.4915688 32.82931186 3.65234375 30.76953125 C5.29169925 27.91387243 5.29169925 27.91387243 5 24 C4.34 25.98 3.68 27.96 3 30 C-1.55384615 30.36923077 -1.55384615 30.36923077 -3.8125 28.5 C-4.204375 28.005 -4.59625 27.51 -5 27 C-5.66 27.99 -6.32 28.98 -7 30 C-8.32 29.67 -9.64 29.34 -11 29 C-10.67 27.68 -10.34 26.36 -10 25 C-10 25.99 -10 26.98 -10 28 C-9.01 28 -8.02 28 -7 28 C-6.84180786 27.04746338 -6.84180786 27.04746338 -6.68041992 26.07568359 C-6.1926964 23.17368896 -5.69023842 20.27442957 -5.1875 17.375 C-5.02185547 16.37597656 -4.85621094 15.37695312 -4.68554688 14.34765625 C-3.75674332 9.05522844 -2.75908832 4.63273855 0 0 Z " fill="#212121" transform="translate(109,98)"/>
<path d="M0 0 C3.2983967 11.20871092 1.29390737 26.5194746 -3.55078125 36.98828125 C-5.18491536 39.25668843 -6.39175625 40.05438175 -9 41 C-11.0625 41.0625 -11.0625 41.0625 -13 40 C-17.92918071 30.44367172 -17.11829461 19.7147571 -14.125 9.625 C-12.3619403 4.3619403 -12.3619403 4.3619403 -10 2 C-8.68 2 -7.36 2 -6 2 C-5.67 2.99 -5.34 3.98 -5 5 C-4.67 4.34 -4.34 3.68 -4 3 C-2.68 3 -1.36 3 0 3 C0 2.01 0 1.02 0 0 Z " fill="#F7F7F7" transform="translate(44,86)"/>
<path d="M0 0 C2.475 0.495 2.475 0.495 5 1 C5.495 3.97 5.495 3.97 6 7 C6.71306808 6.92640762 7.42613617 6.85281525 8.16081238 6.7769928 C18.27117369 5.85637012 28.28521465 5.96358413 38.42578125 6.12109375 C40.26807501 6.14545224 42.11037568 6.16929271 43.9526825 6.19264221 C48.757965 6.2549141 53.56312215 6.324136 58.36828613 6.39489746 C63.28908673 6.46610105 68.2099749 6.53060461 73.13085938 6.59570312 C82.75400253 6.72397992 92.37702642 6.85961274 102 7 C102 5.35 102 3.7 102 2 C98.7 2 95.4 2 92 2 C92 1.67 92 1.34 92 1 C95.63 1 99.26 1 103 1 C103 3.31 103 5.62 103 8 C75.94 8.33 48.88 8.66 21 9 C21 10.65 21 12.3 21 14 C19.68 14.33 18.36 14.66 17 15 C17 14.34 17 13.68 17 13 C16.34 13 15.68 13 15 13 C15 11.68 15 10.36 15 9 C11.7 8.67 8.4 8.34 5 8 C4.34 10.97 3.68 13.94 3 17 C2.67 17 2.34 17 2 17 C2.495 10.565 2.495 10.565 3 4 C2.34 4 1.68 4 1 4 C0.34 9.94 -0.32 15.88 -1 22 C-0.34 22 0.32 22 1 22 C0.835 22.66 0.67 23.32 0.5 24 C-0.12183299 27.73099794 -0.06408926 31.21873378 0 35 C0.66 32.36 1.32 29.72 2 27 C2.33 27 2.66 27 3 27 C3.40850553 34.08076251 1.90420731 40.19925959 0 47 C-0.66 47 -1.32 47 -2 47 C-2.33 44.69 -2.66 42.38 -3 40 C-3.61875 40.94875 -4.2375 41.8975 -4.875 42.875 C-7 46 -7 46 -9 48 C-12.19621722 48.50466588 -13.53266175 48.33381304 -16.1875 46.4375 C-21.05818538 39.88726794 -20.61486247 31.83281326 -20 24 C-19.35709712 20.76318841 -18.57379408 17.62986289 -17.65625 14.4609375 C-16.87116867 11.94137168 -16.87116867 11.94137168 -17 9 C-21.29 8.67 -25.58 8.34 -30 8 C-30 5.69 -30 3.38 -30 1 C-26.04 1 -22.08 1 -18 1 C-18 1.33 -18 1.66 -18 2 C-21.63 2 -25.26 2 -29 2 C-29 3.65 -29 5.3 -29 7 C-26.70774565 6.88628503 -24.41617612 6.75869036 -22.125 6.625 C-20.21074219 6.52058594 -20.21074219 6.52058594 -18.2578125 6.4140625 C-14.91938301 6.32758894 -14.91938301 6.32758894 -13 4 C-9.875 3.875 -9.875 3.875 -7 4 C-6.67 4.66 -6.34 5.32 -6 6 C-3.98330173 7.13350534 -3.98330173 7.13350534 -2 8 C-3.32 8 -4.64 8 -6 8 C-6 12.29 -6 16.58 -6 21 C-6.33 21 -6.66 21 -7 21 C-7.33 16.38 -7.66 11.76 -8 7 C-13.00464548 8.38871587 -13.00464548 8.38871587 -14.36328125 11.4765625 C-17.75679502 22.73241477 -19.28554177 34.14851637 -14 45 C-11.08752798 44.90602089 -11.08752798 44.90602089 -8 44 C-2.28602616 36.36226826 -2.28832708 26.62769557 -2.3125 17.5 C-2.29592219 15.0311817 -2.27153354 12.56240001 -2.23828125 10.09375 C-2.23868408 9.01802734 -2.23908691 7.94230469 -2.23950195 6.83398438 C-2.00207679 4.02457433 -1.45134535 2.38545784 0 0 Z " fill="#343434" transform="translate(46,81)"/>
<path d="M0 0 C0 0.99 0 1.98 0 3 C0.99 3 1.98 3 3 3 C3 3.99 3 4.98 3 6 C5.475 6.495 5.475 6.495 8 7 C8.94324258 11.31196609 9.48041715 15.62065881 10 20 C9.01 20.495 9.01 20.495 8 21 C7.505 20.01 7.505 20.01 7 19 C6.34 19 5.68 19 5 19 C5 18.34 5 17.68 5 17 C5.66 17 6.32 17 7 17 C7 16.01 7 15.02 7 14 C3.77595022 15.66954819 3.77595022 15.66954819 3.3125 18.625 C3.209375 19.40875 3.10625 20.1925 3 21 C2.01 21 1.02 21 0 21 C0.2475 20.46375 0.495 19.9275 0.75 19.375 C1.23271486 16.78427277 1.23271486 16.78427277 -0.5 13.875 C-3.48269972 10.44489532 -5.60431152 9.84532471 -10 9 C-10.33 9.66 -10.66 10.32 -11 11 C-11.639375 11.226875 -12.27875 11.45375 -12.9375 11.6875 C-15.38253604 12.95296611 -15.38253604 12.95296611 -16.3125 16.5 C-17.33769172 19.83397028 -17.33769172 19.83397028 -16 22 C-16.99 22 -17.98 22 -19 22 C-19.66 24.64 -20.32 27.28 -21 30 C-21.33 29.34 -21.66 28.68 -22 28 C-23.65 28.33 -25.3 28.66 -27 29 C-27.10251672 23.87416389 -27.03590199 19.05002222 -26 14 C-25.34 14 -24.68 14 -24 14 C-23.7834375 12.8553125 -23.7834375 12.8553125 -23.5625 11.6875 C-23 9 -23 9 -22 6 C-21.34 6 -20.68 6 -20 6 C-19.979375 5.401875 -19.95875 4.80375 -19.9375 4.1875 C-19 2 -19 2 -15.9375 0.25 C-10.77552761 -1.704327 -5.26782884 -1.75594295 0 0 Z " fill="#BFBFBF" transform="translate(104,19)"/>
<path d="M0 0 C1.32 0.66 2.64 1.32 4 2 C4 2.99 4 3.98 4 5 C3.34 5 2.68 5 2 5 C2 4.01 2 3.02 2 2 C-1.78034623 5.47736026 -1.78034623 5.47736026 -4 10 C-4.07051114 12.73865287 -4.09357765 15.45027588 -4.0625 18.1875 C-4.05798828 18.93708984 -4.05347656 19.68667969 -4.04882812 20.45898438 C-4.03706354 22.30602383 -4.01912865 24.15302213 -4 26 C-2.02 26.66 -0.04 27.32 2 28 C2.28875 27.13375 2.5775 26.2675 2.875 25.375 C3.56461166 23.30616503 4.26942983 21.24222859 5 19.1875 C5.81041092 16.60431518 6.40151992 14.1444637 6.9375 11.5 C7.78753485 7.62907205 8.75357494 4.32803713 11 1 C13.84326289 0.00485799 15.98917234 0 19 0 C19 7.59 19 15.18 19 23 C18.34 22.01 17.68 21.02 17 20 C16.01 22.97 15.02 25.94 14 29 C12.35 29.33 10.7 29.66 9 30 C8.01 28.02 7.02 26.04 6 24 C5.525625 24.804375 5.05125 25.60875 4.5625 26.4375 C3 29 3 29 2 30 C-0.875 30.375 -0.875 30.375 -4 30 C-5.875 27.5 -5.875 27.5 -7 25 C-7.99 27.475 -7.99 27.475 -9 30 C-10.32 30 -11.64 30 -13 30 C-13 29.34 -13 28.68 -13 28 C-12.01 27.34 -11.02 26.68 -10 26 C-9.27268456 24.18740487 -9.27268456 24.18740487 -8.9375 22.078125 C-8.78023438 21.29953125 -8.62296875 20.5209375 -8.4609375 19.71875 C-8.30882813 18.9040625 -8.15671875 18.089375 -8 17.25 C-6.95353225 11.7516101 -5.9731883 6.84629692 -3 2 C-2.01 1.34 -1.02 0.68 0 0 Z " fill="#404040" transform="translate(79,98)"/>
<path d="M0 0 C1.8125 1.5625 1.8125 1.5625 3 3 C2.54625 3.9075 2.0925 4.815 1.625 5.75 C0.14471907 9.13743358 -0.4278566 12.34525997 -0.9375 16 C-1.70571032 21.22645657 -3.03668534 24.65380516 -6 29 C-8.375 29.125 -8.375 29.125 -11 29 C-13.49479784 26.50520216 -13.30726618 24.90377908 -13.37963867 21.48852539 C-13.37810791 20.77043701 -13.37657715 20.05234863 -13.375 19.3125 C-13.37411377 18.58732178 -13.37322754 17.86214355 -13.37231445 17.11499023 C-13.24825612 11.53866274 -12.60775358 8.22622562 -9 4 C-8.01 3.67 -7.02 3.34 -6 3 C-6 3.99 -6 4.98 -6 6 C-5.34 6 -4.68 6 -4 6 C-5.15173355 3.53199953 -6.04783565 1.95216435 -8 0 C-4.65044556 -1.11651815 -3.32740404 -0.99822121 0 0 Z " fill="#F7F7F7" transform="translate(87,97)"/>
<path d="M0 0 C3.01802393 0.32627286 4.59691281 0.61081236 6.8125 2.75 C8.19608294 5.37152557 8.24360427 7.07674878 8 10 C6.45428722 7.68143083 5.20381448 5.49361571 4 3 C2.68 3 1.36 3 0 3 C-1.59979706 6.19959413 -1.49607384 9.5274831 -1 13 C1.42368343 16.41111001 4.07882724 17.69294241 8 19 C8 16.36 8 13.72 8 11 C8.33 11 8.66 11 9 11 C9 12.98 9 14.96 9 17 C11.7839183 15.60804085 11.97898997 13.84424221 13 11 C13.33 11 13.66 11 14 11 C14.25 13.25 14.25 13.25 14 16 C13.4225 16.556875 12.845 17.11375 12.25 17.6875 C8.85424571 21.1775808 7.62508873 25.47049736 6 30 C3.36 30 0.72 30 -2 30 C-2.99 27.69 -3.98 25.38 -5 23 C-5.99 23 -6.98 23 -8 23 C-7.68804687 22.3090625 -7.37609375 21.618125 -7.0546875 20.90625 C-5.54230981 16.73880926 -5.2398218 12.54561127 -4.7578125 8.15625 C-3.89282055 4.55360313 -2.48732382 2.6987967 0 0 Z " fill="#313131" transform="translate(127,98)"/>
<path d="M0 0 C4.23842434 -0.40365946 7.93098831 -0.35633723 12 1 C12 1.99 12 2.98 12 4 C12.99 4 13.98 4 15 4 C15.33 6.31 15.66 8.62 16 11 C16.66 11 17.32 11 18 11 C16.25 14.875 16.25 14.875 14 16 C14 15.01 14 14.02 14 13 C9.13938782 10.48589025 5.50938237 9.80323634 0 10 C-0.99 10.33 -1.98 10.66 -3 11 C-5 8 -5 8 -5 5 C-4.34 5 -3.68 5 -3 5 C-2.62875 4.175 -2.2575 3.35 -1.875 2.5 C-1.25625 1.675 -0.6375 0.85 0 0 Z " fill="#ECECEC" transform="translate(92,18)"/>
<path d="M0 0 C1.65 0.33 3.3 0.66 5 1 C5.33 2.98 5.66 4.96 6 7 C6.71306808 6.92640762 7.42613617 6.85281525 8.16081238 6.7769928 C18.27117369 5.85637012 28.28521465 5.96358413 38.42578125 6.12109375 C40.26807501 6.14545224 42.11037568 6.16929271 43.9526825 6.19264221 C48.757965 6.2549141 53.56312215 6.324136 58.36828613 6.39489746 C63.28908673 6.46610105 68.2099749 6.53060461 73.13085938 6.59570312 C82.75400253 6.72397992 92.37702642 6.85961274 102 7 C102 5.35 102 3.7 102 2 C98.7 2 95.4 2 92 2 C92 1.67 92 1.34 92 1 C95.63 1 99.26 1 103 1 C103 3.31 103 5.62 103 8 C75.94 8.33 48.88 8.66 21 9 C21 10.65 21 12.3 21 14 C19.68 14.33 18.36 14.66 17 15 C17 14.34 17 13.68 17 13 C16.34 13 15.68 13 15 13 C15 11.68 15 10.36 15 9 C11.7 8.67 8.4 8.34 5 8 C4.67 8.99 4.34 9.98 4 11 C3.67 8.36 3.34 5.72 3 3 C2.01 2.67 1.02 2.34 0 2 C0 2.99 0 3.98 0 5 C-0.66 4.67 -1.32 4.34 -2 4 C-1.34 2.68 -0.68 1.36 0 0 Z " fill="#767676" transform="translate(46,81)"/>
<path d="M0 0 C1.32 0.33 2.64 0.66 4 1 C4.58974578 10.09191414 3.08745074 17.45437743 0 26 C-1.32 26 -2.64 26 -4 26 C-6.36554034 18.90337898 -5.32816304 10.98448913 -3 4 C-1.375 1.5 -1.375 1.5 0 0 Z " fill="#EFEFEF" transform="translate(111,100)"/>
<path d="M0 0 C2.14668883 5.77489531 1.93401369 9.38875753 0.25 15.25 C0.06695312 15.95640625 -0.11609375 16.6628125 -0.3046875 17.390625 C-1.19184131 20.68933777 -2.09075876 23.13613813 -4 26 C-4.99 26 -5.98 26 -7 26 C-9.0704176 18.61275001 -8.44558048 10.24519564 -6 3 C-3.91426375 0.30910647 -3.52659852 0 0 0 Z " fill="#F2F2F2" transform="translate(95,100)"/>
<path d="M0 0 C2.3125 0.1875 2.3125 0.1875 5 1 C5.474375 1.845625 5.94875 2.69125 6.4375 3.5625 C6.953125 4.366875 7.46875 5.17125 8 6 C11.12635209 6.41746608 11.12635209 6.41746608 14 6 C14.33 8.31 14.66 10.62 15 13 C14.34 12.34 13.68 11.68 13 11 C12.34 12.32 11.68 13.64 11 15 C10.34 15 9.68 15 9 15 C8.67 15.66 8.34 16.32 8 17 C4.60601966 16.7090874 2.96886249 15.97716583 0.1875 13.9375 C-2.82293419 9.89491695 -2.5596046 7.95649785 -2 3 C-1.34 2.01 -0.68 1.02 0 0 Z " fill="#EEEEEE" transform="translate(127,100)"/>
<path d="M0 0 C2 3.75 2 3.75 2 6 C1.34 6 0.68 6 0 6 C0.33 6.66 0.66 7.32 1 8 C2.32 7.67 3.64 7.34 5 7 C4.01 7.495 4.01 7.495 3 8 C3 12.95 3 17.9 3 23 C1.68 22.67 0.36 22.34 -1 22 C-1 21.01 -1 20.02 -1 19 C-3.31 19 -5.62 19 -8 19 C-7.69052329 17.06201479 -7.37731166 15.12462574 -7.0625 13.1875 C-6.88847656 12.10855469 -6.71445313 11.02960937 -6.53515625 9.91796875 C-6 7 -6 7 -5 4 C-3.35 3.67 -1.7 3.34 0 3 C0 2.01 0 1.02 0 0 Z " fill="#9F9F9F" transform="translate(99,39)"/>
<path d="M0 0 C1.9375 0.625 1.9375 0.625 4 2 C5.37676613 7.36938791 5.11351952 12.8727408 5.0625 18.375 C5.05798828 19.30183594 5.05347656 20.22867188 5.04882812 21.18359375 C5.03711574 23.45579709 5.02071372 25.72786388 5 28 C5.66 28 6.32 28 7 28 C8.84454188 21.23667977 9.35723905 14.74177605 9.57006836 7.76586914 C9.79093913 2.20906087 9.79093913 2.20906087 12 0 C12.33 9.24 12.66 18.48 13 28 C12.01 27.01 11.02 26.02 10 25 C9.01 26.98 8.02 28.96 7 31 C6.01 30.67 5.02 30.34 4 30 C2.65893595 27.3178719 2.78549581 25.11601968 2.68359375 22.1171875 C2.62075195 20.36728516 2.62075195 20.36728516 2.55664062 18.58203125 C2.51732422 17.35871094 2.47800781 16.13539062 2.4375 14.875 C2.39431641 13.64394531 2.35113281 12.41289063 2.30664062 11.14453125 C2.20031296 8.09647147 2.09828219 5.0483281 2 2 C1.34 2 0.68 2 0 2 C-0.28875 2.763125 -0.5775 3.52625 -0.875 4.3125 C-2 7 -2 7 -4 10 C-4.41176754 6.39703406 -4.1535853 5.21597933 -2 2.1875 C-1.34 1.465625 -0.68 0.74375 0 0 Z " fill="#212121" transform="translate(53,98)"/>
<path d="M0 0 C0 3 0 3 -2 6 C-2.35310715 8.07380389 -2.63682306 10.15987585 -2.875 12.25 C-3.64291271 17.79259577 -4.81385941 21.43319849 -8 26 C-8.33 26 -8.66 26 -9 26 C-9 17.75 -9 9.5 -9 1 C-5.68756695 0.17189174 -3.34023421 -0.09278428 0 0 Z " fill="#F5F5F5" transform="translate(126,97)"/>
<path d="M0 0 C1.9375 1.5625 1.9375 1.5625 3 3 C2.34 4.32 1.68 5.64 1 7 C-0.32 6.67 -1.64 6.34 -3 6 C-3 6.66 -3 7.32 -3 8 C-3.66 8 -4.32 8 -5 8 C-5.33 8.66 -5.66 9.32 -6 10 C-6 9.34 -6 8.68 -6 8 C-7.32 8 -8.64 8 -10 8 C-10 8.66 -10 9.32 -10 10 C-9.34 10.66 -8.68 11.32 -8 12 C-9.98 12.99 -9.98 12.99 -12 14 C-13.6875 11.9375 -13.6875 11.9375 -15 9 C-13.91195327 5.05583059 -12.81900343 2.72800305 -9.75 0 C-6.08456245 -1.33288638 -3.74751957 -0.97157915 0 0 Z " fill="#D9D9D9" transform="translate(101,29)"/>
<path d="M0 0 C0.99 0.66 1.98 1.32 3 2 C3.61124737 7.80684997 3.01105502 13.86547708 0 19 C-1.32158639 19.37722446 -2.65636818 19.71096292 -4 20 C-4.66 20.99 -5.32 21.98 -6 23 C-7.15862177 16.69194811 -7.55154546 10.60770336 -4 5 C-2.6949419 3.31110128 -1.36639342 1.6396721 0 0 Z " fill="#F1F1F1" transform="translate(102,107)"/>
<path d="M0 0 C1.32 0.33 2.64 0.66 4 1 C4.05437607 2.58294782 4.09296271 4.16644256 4.125 5.75 C4.14820313 6.63171875 4.17140625 7.5134375 4.1953125 8.421875 C4 11 4 11 2 15 C2.33 10.71 2.66 6.42 3 2 C2.34 2 1.68 2 1 2 C0.34 7.94 -0.32 13.88 -1 20 C-0.34 20 0.32 20 1 20 C0.835 20.66 0.67 21.32 0.5 22 C-0.12183299 25.73099794 -0.06408926 29.21873378 0 33 C0.66 30.36 1.32 27.72 2 25 C2.33 25 2.66 25 3 25 C3.40850553 32.08076251 1.90420731 38.19925959 0 45 C-0.66 45 -1.32 45 -2 45 C-2.06058594 44.38511719 -2.12117188 43.77023438 -2.18359375 43.13671875 C-2.26738281 42.32847656 -2.35117187 41.52023438 -2.4375 40.6875 C-2.51871094 39.88699219 -2.59992187 39.08648437 -2.68359375 38.26171875 C-2.95265693 35.83912821 -2.95265693 35.83912821 -4 33 C-3.67 32.01 -3.34 31.02 -3 30 C-2.87467369 28.30994558 -2.79878209 26.61597558 -2.75390625 24.921875 C-2.72103516 23.92542969 -2.68816406 22.92898437 -2.65429688 21.90234375 C-2.5935568 19.81650382 -2.5362126 17.73056197 -2.48242188 15.64453125 C-2.29278796 10.08432169 -1.83608237 5.26294056 0 0 Z " fill="#161616" transform="translate(46,83)"/>
<path d="M0 0 C2.64 0 5.28 0 8 0 C8 4.95 8 9.9 8 15 C5.86413322 11.79619983 5.76867825 10.98060033 5.875 7.3125 C5.89304687 6.50425781 5.91109375 5.69601563 5.9296875 4.86328125 C5.95289062 4.24839844 5.97609375 3.63351563 6 3 C3.55519921 3.18828772 3.55519921 3.18828772 1 4 C-2.57499735 8.82624642 -2.11651547 15.64936053 -2.0625 21.375 C-2.04896484 23.24285156 -2.04896484 23.24285156 -2.03515625 25.1484375 C-2.02355469 26.08945313 -2.01195313 27.03046875 -2 28 C-0.68 28 0.64 28 2 28 C2 28.66 2 29.32 2 30 C-2.75 29.25 -2.75 29.25 -5 27 C-5.66 27.99 -6.32 28.98 -7 30 C-8.32 29.67 -9.64 29.34 -11 29 C-10.67 27.68 -10.34 26.36 -10 25 C-10 25.99 -10 26.98 -10 28 C-9.01 28 -8.02 28 -7 28 C-6.84180786 27.04746338 -6.84180786 27.04746338 -6.68041992 26.07568359 C-6.1926964 23.17368896 -5.69023842 20.27442957 -5.1875 17.375 C-5.02185547 16.37597656 -4.85621094 15.37695312 -4.68554688 14.34765625 C-3.75674332 9.05522844 -2.75908832 4.63273855 0 0 Z " fill="#2B2B2B" transform="translate(109,98)"/>
<path d="M0 0 C0.66 0 1.32 0 2 0 C2 0.99 2 1.98 2 3 C1.34 3 0.68 3 0 3 C0 3.66 0 4.32 0 5 C0.99 4.67 1.98 4.34 3 4 C3.33 6.97 3.66 9.94 4 13 C3.15695313 13.06058594 2.31390625 13.12117188 1.4453125 13.18359375 C0.34960938 13.26738281 -0.74609375 13.35117187 -1.875 13.4375 C-3.51082031 13.55931641 -3.51082031 13.55931641 -5.1796875 13.68359375 C-7.94728971 13.83001703 -7.94728971 13.83001703 -10 15 C-9.45987807 11.11112207 -8.35992667 9.07816522 -6 6 C-6 5.01 -6 4.02 -6 3 C-5.34 2.34 -4.68 1.68 -4 1 C-3.67 2.65 -3.34 4.3 -3 6 C-2.690625 5.195625 -2.38125 4.39125 -2.0625 3.5625 C-1 1 -1 1 0 0 Z " fill="#DDDDDD" transform="translate(109,33)"/>
<path d="M0 0 C1.2065625 0.2475 1.2065625 0.2475 2.4375 0.5 C4.97658116 1.26597109 4.97658116 1.26597109 7 0 C7 7.59 7 15.18 7 23 C6.34 22.01 5.68 21.02 5 20 C4.01 22.97 3.02 25.94 2 29 C0.35 29.33 -1.3 29.66 -3 30 C-3 29.01 -3 28.02 -3 27 C-2.01 27 -1.02 27 0 27 C2.94004087 19.06188964 6.12507265 10.43957425 4 2 C0.46352496 3.67517239 -0.7911563 4.49280817 -2.3125 8.1875 C-2.539375 9.115625 -2.76625 10.04375 -3 11 C-3.6875 9.375 -3.6875 9.375 -4 7 C-1.72413793 1.72413793 -1.72413793 1.72413793 0 0 Z " fill="#222222" transform="translate(91,98)"/>
<path d="M0 0 C1.65 0.66 3.3 1.32 5 2 C5.33 5.96 5.66 9.92 6 14 C5.01 14.495 5.01 14.495 4 15 C3.67 14.34 3.34 13.68 3 13 C2.34 13 1.68 13 1 13 C1 12.34 1 11.68 1 11 C1.66 11 2.32 11 3 11 C3 10.01 3 9.02 3 8 C-0.22404978 9.66954819 -0.22404978 9.66954819 -0.6875 12.625 C-0.790625 13.40875 -0.89375 14.1925 -1 15 C-1.99 15 -2.98 15 -4 15 C-3.7525 14.46375 -3.505 13.9275 -3.25 13.375 C-2.76728514 10.78427277 -2.76728514 10.78427277 -4.5 7.875 C-7.48269972 4.44489532 -9.60431152 3.84532471 -14 3 C-14.33 3.66 -14.66 4.32 -15 5 C-16.33333333 5.66666667 -17.66666667 6.33333333 -19 7 C-20.70921589 8.5412312 -20.70921589 8.5412312 -22 10 C-22 8.68 -22 7.36 -22 6 C-18.87407756 3.25528762 -16.69081788 2.1004826 -12.5625 1.5 C-8.08116355 2.1289595 -5.73073928 3.46309729 -2 6 C-1.67 6.66 -1.34 7.32 -1 8 C-0.01 6.68 0.98 5.36 2 4 C1.34 4 0.68 4 0 4 C0 2.68 0 1.36 0 0 Z " fill="#8B8B8B" transform="translate(108,25)"/>
<path d="M0 0 C0.66 0 1.32 0 2 0 C2.08837761 3.62484173 2.14084706 7.24940017 2.1875 10.875 C2.21263672 11.88820313 2.23777344 12.90140625 2.26367188 13.9453125 C2.32970578 20.81283888 1.3779117 26.55345546 -1 33 C-1.33 33 -1.66 33 -2 33 C-2.3690205 22.44191344 -2.3690205 22.44191344 0 18 C-0.66 18 -1.32 18 -2 18 C-2.2361959 11.59646678 -1.823321 6.15370839 0 0 Z " fill="#B9B9B9" transform="translate(47,85)"/>
<path d="M0 0 C1.8125 1.5625 1.8125 1.5625 3 3 C2.01 5.31 1.02 7.62 0 10 C-0.33 9.34 -0.66 8.68 -1 8 C-1.99 8.99 -2.98 9.98 -4 11 C-6.4375 10.25 -6.4375 10.25 -9 9 C-9.8125 6.875 -9.8125 6.875 -10 5 C-8.68 4.34 -7.36 3.68 -6 3 C-6 3.99 -6 4.98 -6 6 C-5.34 6 -4.68 6 -4 6 C-5.15173355 3.53199953 -6.04783565 1.95216435 -8 0 C-4.65044556 -1.11651815 -3.32740404 -0.99822121 0 0 Z " fill="#EFEFEF" transform="translate(87,97)"/>
<path d="M0 0 C0.99384397 3.25258026 1.04826731 6.03465371 0.87890625 9.421875 C0.83056641 10.44667969 0.78222656 11.47148438 0.73242188 12.52734375 C0.67634766 13.59082031 0.62027344 14.65429688 0.5625 15.75 C0.51029297 16.82894531 0.45808594 17.90789062 0.40429688 19.01953125 C0.27480531 21.67999422 0.13984639 24.34006452 0 27 C-0.33 27 -0.66 27 -1 27 C-1.12375 25.329375 -1.12375 25.329375 -1.25 23.625 C-1.5859843 19.97386545 -1.5859843 19.97386545 -3.9375 18.5625 C-5.96528312 17.9122942 -5.96528312 17.9122942 -8 18 C-7 15 -7 15 -5 13 C-4.53837573 10.56747339 -4.53837573 10.56747339 -4.375 7.875 C-4.30023438 6.96492188 -4.22546875 6.05484375 -4.1484375 5.1171875 C-4.09945312 4.41851562 -4.05046875 3.71984375 -4 3 C-2.68 3 -1.36 3 0 3 C0 2.01 0 1.02 0 0 Z " fill="#C6C6C6" transform="translate(44,86)"/>
<path d="M0 0 C1.98 0.495 1.98 0.495 4 1 C4 7.93 4 14.86 4 22 C3.01 22 2.02 22 1 22 C1 18.7 1 15.4 1 12 C0.34 12 -0.32 12 -1 12 C-1.02712066 10.56260487 -1.04645067 9.12506137 -1.0625 7.6875 C-1.07410156 6.88699219 -1.08570312 6.08648437 -1.09765625 5.26171875 C-1 3 -1 3 0 0 Z " fill="#E6E6E6" transform="translate(115,35)"/>
<path d="M0 0 C0.53625 0.639375 1.0725 1.27875 1.625 1.9375 C4.44367193 4.38529404 6.33860732 4.66714612 10 5 C9.125 11.875 9.125 11.875 8 13 C6.00041636 13.04080783 3.99954746 13.04254356 2 13 C0.21590198 9.93753253 -0.22880021 7.77920727 -0.125 4.25 C-0.10695313 3.45078125 -0.08890625 2.6515625 -0.0703125 1.828125 C-0.04710938 1.22484375 -0.02390625 0.6215625 0 0 Z " fill="#F0F0F0" transform="translate(124,113)"/>
<path d="M0 0 C3.96 0 7.92 0 12 0 C12 0.33 12 0.66 12 1 C8.37 1 4.74 1 1 1 C1 2.65 1 4.3 1 6 C3.29225435 5.88628503 5.58382388 5.75869036 7.875 5.625 C9.78925781 5.52058594 9.78925781 5.52058594 11.7421875 5.4140625 C15.08061699 5.32758894 15.08061699 5.32758894 17 3 C20.125 2.875 20.125 2.875 23 3 C23.33 3.66 23.66 4.32 24 5 C26.01669827 6.13350534 26.01669827 6.13350534 28 7 C26.68 7 25.36 7 24 7 C24 11.29 24 15.58 24 20 C23.67 20 23.34 20 23 20 C22.34 15.05 21.68 10.1 21 5 C17.16263678 5.95934081 16.40339772 6.23609263 14 9 C13.67 8.67 13.34 8.34 13 8 C10.81707226 7.76518307 8.62796826 7.58636677 6.4375 7.4375 C5.23996094 7.35371094 4.04242188 7.26992187 2.80859375 7.18359375 C1.88175781 7.12300781 0.95492188 7.06242187 0 7 C0 4.69 0 2.38 0 0 Z " fill="#777777" transform="translate(16,82)"/>
<path d="M0 0 C1.1446875 0.495 1.1446875 0.495 2.3125 1 C4.99069135 2.17436686 4.99069135 2.17436686 8 2 C8.63019694 10.19256018 8.63019694 10.19256018 6 13.5625 C5.34 14.036875 4.68 14.51125 4 15 C3.67 12.03 3.34 9.06 3 6 C1.68 6 0.36 6 -1 6 C-1.042721 4.33388095 -1.04063832 2.66617115 -1 1 C-0.67 0.67 -0.34 0.34 0 0 Z " fill="#BFBFBF" transform="translate(85,40)"/>
<path d="M0 0 C1.953125 1.01953125 1.953125 1.01953125 4 3 C4.45781902 5.68528464 4.69472304 7.99651714 4.75 10.6875 C4.77964844 11.38939453 4.80929688 12.09128906 4.83984375 12.81445312 C4.91037033 14.54235424 4.95747068 16.2711832 5 18 C3.02 18 1.04 18 -1 18 C-1.223293 15.93906592 -1.42802887 13.8761161 -1.625 11.8125 C-1.74101563 10.66394531 -1.85703125 9.51539063 -1.9765625 8.33203125 C-2.00023426 4.96669584 -1.47419799 2.98778294 0 0 Z " fill="#F4F4F4" transform="translate(124,8)"/>
<path d="M0 0 C0.33 0 0.66 0 1 0 C1 4.62 1 9.24 1 14 C1.66 14 2.32 14 3 14 C3 18.29 3 22.58 3 27 C4.32 27.33 5.64 27.66 7 28 C7 20.74 7 13.48 7 6 C7.33 6 7.66 6 8 6 C8 13.59 8 21.18 8 29 C6.35 29.33 4.7 29.66 3 30 C2.67 30.99 2.34 31.98 2 33 C2 27.06 2 21.12 2 15 C1.34 15 0.68 15 0 15 C0 10.05 0 5.1 0 0 Z " fill="#ABABAB" transform="translate(49,41)"/>
<path d="M0 0 C1.8125 0.0625 1.8125 0.0625 4 1 C5.81278756 4.4960903 7 7.03981755 7 11 C6.01 11 5.02 11 4 11 C4 10.34 4 9.68 4 9 C1.69 9 -0.62 9 -3 9 C-2.44271087 5.65626525 -1.64826111 2.96687001 0 0 Z " fill="#BDBDBD" transform="translate(94,49)"/>
<path d="M0 0 C0.66 2.31 1.32 4.62 2 7 C0.68 8.32 -0.64 9.64 -2 11 C-2.33 10.34 -2.66 9.68 -3 9 C-3.33 9.66 -3.66 10.32 -4 11 C-4.99 10.67 -5.98 10.34 -7 10 C-6.39169139 3.55192878 -6.39169139 3.55192878 -4.625 1.0625 C-3 0 -3 0 0 0 Z " fill="#EAEAEA" transform="translate(95,100)"/>
<path d="M0 0 C1.65 0 3.3 0 5 0 C5.66 3.3 6.32 6.6 7 10 C2 11 2 11 0.125 10.0625 C-1.72338403 6.67379594 -0.67245855 3.72908833 0 0 Z " fill="#0D0D0D" transform="translate(83,46)"/>
<path d="M0 0 C0.33 0 0.66 0 1 0 C1.33 4.95 1.66 9.9 2 15 C0.35 15 -1.3 15 -3 15 C-3 17.64 -3 20.28 -3 23 C-3.33 23 -3.66 23 -4 23 C-4.22197585 20.89722877 -4.42713637 18.79267698 -4.625 16.6875 C-4.74101563 15.51574219 -4.85703125 14.34398437 -4.9765625 13.13671875 C-5 10 -5 10 -3 7 C-2.01 7 -1.02 7 0 7 C0 4.69 0 2.38 0 0 Z " fill="#BEBEBE" transform="translate(62,1)"/>
<path d="M0 0 C0.33 0 0.66 0 1 0 C1.36020428 4.99783437 0.34389935 7.98018872 -2 12.375 C-2.556875 13.43460938 -3.11375 14.49421875 -3.6875 15.5859375 C-4.120625 16.38257813 -4.55375 17.17921875 -5 18 C-5.33 16.68 -5.66 15.36 -6 14 C-6.33 14.33 -6.66 14.66 -7 15 C-8.125 13.25 -8.125 13.25 -9 11 C-8.125 8.75 -8.125 8.75 -7 7 C-5.35 7.33 -3.7 7.66 -2 8 C-1.34 5.36 -0.68 2.72 0 0 Z " fill="#E1E1E1" transform="translate(114,120)"/>
<path d="M0 0 C0.33 0 0.66 0 1 0 C1 1.98 1 3.96 1 6 C3.7839183 4.60804085 3.97898997 2.84424221 5 0 C5.33 0 5.66 0 6 0 C6.25 2.25 6.25 2.25 6 5 C5.4225 5.556875 4.845 6.11375 4.25 6.6875 C0.85424571 10.1775808 -0.37491127 14.47049736 -2 19 C-4.31 19 -6.62 19 -9 19 C-9 18.67 -9 18.34 -9 18 C-8.05125 17.814375 -7.1025 17.62875 -6.125 17.4375 C-2.61628301 16.26599195 -2.61628301 16.26599195 -1.625 12.375 C-1.41875 11.26125 -1.2125 10.1475 -1 9 C-2.32 9 -3.64 9 -5 9 C-5 8.34 -5 7.68 -5 7 C-3.35 7.33 -1.7 7.66 0 8 C0 5.36 0 2.72 0 0 Z " fill="#1E1E1E" transform="translate(135,109)"/>
<path d="M0 0 C1.98 0 3.96 0 6 0 C6.33 2.31 6.66 4.62 7 7 C6.34 6.34 5.68 5.68 5 5 C4.34 6.32 3.68 7.64 3 9 C2.34 9 1.68 9 1 9 C0.67 9.66 0.34 10.32 0 11 C-0.99 10.67 -1.98 10.34 -3 10 C-2.34 10 -1.68 10 -1 10 C-1.020625 8.72125 -1.04125 7.4425 -1.0625 6.125 C-1.125 2.25 -1.125 2.25 0 0 Z " fill="#C4C4C4" transform="translate(135,106)"/>
<path d="M0 0 C1.32 0 2.64 0 4 0 C4.33 1.65 4.66 3.3 5 5 C4.34 5 3.68 5 3 5 C2.34 6.32 1.68 7.64 1 9 C-0.65 9 -2.3 9 -4 9 C-2.25 2.25 -2.25 2.25 0 0 Z " fill="#E7E7E7" transform="translate(34,88)"/>
<path d="M0 0 C0.33 0 0.66 0 1 0 C1 4.95 1 9.9 1 15 C2.32 15 3.64 15 5 15 C4.29445932 18.66881155 2.72264494 21.70450534 1 25 C0.67 25 0.34 25 0 25 C0 16.75 0 8.5 0 0 Z " fill="#E0E0E0" transform="translate(117,98)"/>
<path d="M0 0 C0.33 0 0.66 0 1 0 C1.33 4.29 1.66 8.58 2 13 C3.32 13 4.64 13 6 13 C6 13.66 6 14.32 6 15 C1.25 14.25 1.25 14.25 -1 12 C-1.99 13.485 -1.99 13.485 -3 15 C-4.32 14.67 -5.64 14.34 -7 14 C-6.67 12.68 -6.34 11.36 -6 10 C-6 10.99 -6 11.98 -6 13 C-5.01 13 -4.02 13 -3 13 C-2.01 8.71 -1.02 4.42 0 0 Z " fill="#1E1E1E" transform="translate(105,113)"/>
<path d="M0 0 C0.33 0 0.66 0 1 0 C1 6.6 1 13.2 1 20 C1.66 20 2.32 20 3 20 C3.66 17.03 4.32 14.06 5 11 C5.99 12.485 5.99 12.485 7 14 C6.3203125 16.26171875 6.3203125 16.26171875 5.125 18.6875 C4.73570313 19.49574219 4.34640625 20.30398437 3.9453125 21.13671875 C3.63335937 21.75160156 3.32140625 22.36648437 3 23 C2.01 22.67 1.02 22.34 0 22 C-1.09145789 19.18605518 -1.07053427 16.65275524 -0.87890625 13.671875 C-0.83056641 12.87265625 -0.78222656 12.0734375 -0.73242188 11.25 C-0.67634766 10.425 -0.62027344 9.6 -0.5625 8.75 C-0.51029297 7.90953125 -0.45808594 7.0690625 -0.40429688 6.203125 C-0.27504311 4.1350648 -0.13825726 2.0674778 0 0 Z " fill="#5B5B5B" transform="translate(57,106)"/>
<path d="M0 0 C1.65 0 3.3 0 5 0 C6.3805087 3.76668598 5.59568159 6.44789173 4.5625 10.25 C4.27503906 11.32765625 3.98757812 12.4053125 3.69140625 13.515625 C3.46324219 14.33546875 3.23507813 15.1553125 3 16 C1 14 1 14 0.83984375 11.25 C0.87207031 10.1775 0.90429688 9.105 0.9375 8 C1.19798101 3.8439706 1.19798101 3.8439706 0 0 Z " fill="#EDEDED" transform="translate(24,89)"/>
<path d="M0 0 C0.33 0 0.66 0 1 0 C1.40850553 7.08076251 -0.09579269 13.19925959 -2 20 C-2.66 20 -3.32 20 -4 20 C-4 16.37 -4 12.74 -4 9 C-3.34 8.67 -2.68 8.34 -2 8 C-1.31527335 6.11235097 -1.31527335 6.11235097 -0.875 3.9375 C-0.70742188 3.20402344 -0.53984375 2.47054687 -0.3671875 1.71484375 C-0.24601562 1.14894531 -0.12484375 0.58304687 0 0 Z " fill="#333333" transform="translate(48,108)"/>
<path d="M0 0 C8.57142857 -0.14285714 8.57142857 -0.14285714 12 1 C12 1.99 12 2.98 12 4 C12.99 4 13.98 4 15 4 C15 4.99 15 5.98 15 7 C14.34 7 13.68 7 13 7 C13 6.34 13 5.68 13 5 C11.68 5.33 10.36 5.66 9 6 C8.67 5.34 8.34 4.68 8 4 C7.34 4 6.68 4 6 4 C5.67 3.34 5.34 2.68 5 2 C3.35 2.33 1.7 2.66 0 3 C0 2.01 0 1.02 0 0 Z " fill="#686868" transform="translate(92,18)"/>
<path d="M0 0 C0.66 0 1.32 0 2 0 C2 0.99 2 1.98 2 3 C3.32 2.67 4.64 2.34 6 2 C6 2.66 6 3.32 6 4 C6.99 3.67 7.98 3.34 9 3 C8.34 4.32 7.68 5.64 7 7 C7 6.34 7 5.68 7 5 C6.01 5.99 5.02 6.98 4 8 C1.5625 7.25 1.5625 7.25 -1 6 C-1.9375 4 -1.9375 4 -2 2 C-1.34 1.34 -0.68 0.68 0 0 Z " fill="#E7E7E7" transform="translate(79,100)"/>
<path d="M0 0 C0.66 0.66 1.32 1.32 2 2 C2.66 1.34 3.32 0.68 4 0 C4.99 0 5.98 0 7 0 C7 1.32 7 2.64 7 4 C7.66 4 8.32 4 9 4 C7.25 7.875 7.25 7.875 5 9 C5 8.01 5 7.02 5 6 C4.401875 5.71125 3.80375 5.4225 3.1875 5.125 C1 4 1 4 -2 2 C-1.34 2 -0.68 2 0 2 C0 1.34 0 0.68 0 0 Z " fill="#DEDEDE" transform="translate(101,25)"/>
<path d="M0 0 C0.33 0 0.66 0 1 0 C1.33 6.6 1.66 13.2 2 20 C2.33 20 2.66 20 3 20 C3.495 15.545 3.495 15.545 4 11 C4.33 11 4.66 11 5 11 C5 14.63 5 18.26 5 22 C3.68 22.33 2.36 22.66 1 23 C0 22 0 22 -0.11352539 19.86694336 C-0.10828857 18.95050049 -0.10305176 18.03405762 -0.09765625 17.08984375 C-0.09443359 16.10048828 -0.09121094 15.11113281 -0.08789062 14.09179688 C-0.07951172 13.05087891 -0.07113281 12.00996094 -0.0625 10.9375 C-0.05798828 9.89271484 -0.05347656 8.84792969 -0.04882812 7.77148438 C-0.03699913 5.1809334 -0.02051689 2.59049441 0 0 Z " fill="#A6A6A6" transform="translate(68,47)"/>
<path d="M0 0 C1.2380014 3.57644848 0.74926071 6.33694766 0 10 C1.32 10.33 2.64 10.66 4 11 C4.33 9.68 4.66 8.36 5 7 C4.67 9.64 4.34 12.28 4 15 C3.67 14.34 3.34 13.68 3 13 C1.35 13.33 -0.3 13.66 -2 14 C-2.3690205 4.58997722 -2.3690205 4.58997722 0 0 Z " fill="#818181" transform="translate(79,34)"/>
<path d="M0 0 C1.3921875 0.2784375 1.3921875 0.2784375 2.8125 0.5625 C6.01343771 1.24123881 6.01343771 1.24123881 9 0 C8.375 2.4375 8.375 2.4375 7 5 C3.875 5.8125 3.875 5.8125 1 6 C-0.0625 4.125 -0.0625 4.125 -1 2 C-0.67 1.34 -0.34 0.68 0 0 Z " fill="#E1E1E1" transform="translate(31,121)"/>
<path d="M0 0 C0.33 2.97 0.66 5.94 1 9 C-1.475 8.01 -1.475 8.01 -4 7 C-3.67 7.99 -3.34 8.98 -3 10 C-3.99 10.33 -4.98 10.66 -6 11 C-5.71890887 9.35232753 -5.42481474 7.70686855 -5.125 6.0625 C-4.96257812 5.14597656 -4.80015625 4.22945312 -4.6328125 3.28515625 C-4.42398438 2.53105469 -4.21515625 1.77695312 -4 1 C-2 0 -2 0 0 0 Z " fill="#212121" transform="translate(98,42)"/>
<path d="M0 0 C0.53625 0.639375 1.0725 1.27875 1.625 1.9375 C4.44367193 4.38529404 6.33860732 4.66714612 10 5 C9.67 6.32 9.34 7.64 9 9 C8.67 8.34 8.34 7.68 8 7 C5.83125748 7.50603992 4.00032373 7.99983813 2 9 C1.67 9.66 1.34 10.32 1 11 C-0.20272819 8.59454362 -0.10071472 7.05003047 -0.0625 4.375 C-0.05347656 3.55773437 -0.04445313 2.74046875 -0.03515625 1.8984375 C-0.02355469 1.27195312 -0.01195313 0.64546875 0 0 Z " fill="#D9D9D9" transform="translate(124,113)"/>
<path d="M0 0 C2.12508244 3.18762365 2.5020163 5.26512223 3 9 C1.01432292 8.70703125 -0.97135417 8.4140625 -2.95703125 8.12109375 C-5.2025342 7.86095201 -5.2025342 7.86095201 -8 9 C-7.67 7.35 -7.34 5.7 -7 4 C-6.67 4.66 -6.34 5.32 -6 6 C-4.68 6 -3.36 6 -2 6 C-1.855625 5.195625 -1.71125 4.39125 -1.5625 3.5625 C-1 1 -1 1 0 0 Z " fill="#D9D9D9" transform="translate(72,122)"/>
<path d="M0 0 C1.65 0 3.3 0 5 0 C5 3.3 5 6.6 5 10 C3.68 9.67 2.36 9.34 1 9 C0.67 6.03 0.34 3.06 0 0 Z " fill="#B1B1B1" transform="translate(77,49)"/>
<path d="M0 0 C4.67692308 1.47692308 4.67692308 1.47692308 6.3125 4.125 C6.539375 4.74375 6.76625 5.3625 7 6 C4 8 4 8 1.8125 7.625 C1.214375 7.41875 0.61625 7.2125 0 7 C0 4.69 0 2.38 0 0 Z " fill="#DDDDDD" transform="translate(97,28)"/>
<path d="M0 0 C0.12375 0.639375 0.2475 1.27875 0.375 1.9375 C0.684375 2.9584375 0.684375 2.9584375 1 4 C1.66 4.33 2.32 4.66 3 5 C3 7.33333333 3 9.66666667 3 12 C2.34 12 1.68 12 1 12 C0.34 11.01 -0.32 10.02 -1 9 C-1.66 9.66 -2.32 10.32 -3 11 C-2.979375 10.05125 -2.95875 9.1025 -2.9375 8.125 C-2.77448174 5.09333717 -2.77448174 5.09333717 -4 3 C-2.68 3 -1.36 3 0 3 C0 2.01 0 1.02 0 0 Z " fill="#2D2D2D" transform="translate(79,55)"/>
<path d="M0 0 C2.29013653 3.4352048 2.17842973 4.985331 2 9 C1.34 9 0.68 9 0 9 C0 9.66 0 10.32 0 11 C-1.65 11.33 -3.3 11.66 -5 12 C-5 11.01 -5 10.02 -5 9 C-4.54625 8.566875 -4.0925 8.13375 -3.625 7.6875 C-1.4243481 5.40220764 -0.86929801 3.00910851 0 0 Z " fill="#EBEBEB" transform="translate(63,120)"/>
<path d="M0 0 C0.33 0 0.66 0 1 0 C1 2.31 1 4.62 1 7 C0.34 7 -0.32 7 -1 7 C-1 14.26 -1 21.52 -1 29 C-1.33 29 -1.66 29 -2 29 C-2.33 21.08 -2.66 13.16 -3 5 C-2.34 4.67 -1.68 4.34 -1 4 C-0.34786708 1.97536745 -0.34786708 1.97536745 0 0 Z " fill="#C7C7C7" transform="translate(67,91)"/>
<path d="M0 0 C0.33 0 0.66 0 1 0 C1.33 2.64 1.66 5.28 2 8 C3.98 8 5.96 8 8 8 C7.67 8.66 7.34 9.32 7 10 C7.66 10.66 8.32 11.32 9 12 C4.5058921 13.28403083 3.76312838 12.90525135 -1 11 C-0.67 7.37 -0.34 3.74 0 0 Z " fill="#1D1D1D" transform="translate(28,73)"/>
<path d="M0 0 C1.32 0.66 2.64 1.32 4 2 C4 2.99 4 3.98 4 5 C3.34 5 2.68 5 2 5 C2 4.01 2 3.02 2 2 C-1.82669043 5.42388092 -3.72278474 8.00724943 -5 13 C-5.33 13 -5.66 13 -6 13 C-5.63076923 5.73846154 -5.63076923 5.73846154 -2.4375 2 C-1.633125 1.34 -0.82875 0.68 0 0 Z " fill="#343434" transform="translate(79,98)"/>
<path d="M0 0 C1.953125 1.01953125 1.953125 1.01953125 4 3 C4.45781902 5.68528464 4.69472304 7.99651714 4.75 10.6875 C4.77964844 11.38939453 4.80929688 12.09128906 4.83984375 12.81445312 C4.91037033 14.54235424 4.95747068 16.2711832 5 18 C4.34 18 3.68 18 3 18 C2.97421875 17.22914062 2.9484375 16.45828125 2.921875 15.6640625 C2.86515625 14.66117188 2.8084375 13.65828125 2.75 12.625 C2.70359375 11.62726562 2.6571875 10.62953125 2.609375 9.6015625 C2.27839115 6.8473523 2.27839115 6.8473523 -0.046875 5.6484375 C-0.69140625 5.43445313 -1.3359375 5.22046875 -2 5 C-1.34 3.35 -0.68 1.7 0 0 Z " fill="#DDDDDD" transform="translate(124,8)"/>
<path d="M0 0 C0.66 0 1.32 0 2 0 C1 7.42857143 1 7.42857143 0 11 C-0.99 11 -1.98 11 -3 11 C-3.3227506 6.37390802 -2.84450614 3.71973879 0 0 Z " fill="#D8D8D8" transform="translate(113,131)"/>
<path d="M0 0 C0.99 0 1.98 0 3 0 C3.21192221 5.19209404 2.5912689 9.126739 1 14 C-1.61007735 10.08488397 -1.22006613 6.5480334 -1 2 C-0.67 1.34 -0.34 0.68 0 0 Z " fill="#C3C3C3" transform="translate(96,116)"/>
<path d="M0 0 C0 1.65 0 3.3 0 5 C-1.32 5.33 -2.64 5.66 -4 6 C-4 5.34 -4 4.68 -4 4 C-4.66 4 -5.32 4 -6 4 C-6 2.68 -6 1.36 -6 0 C-3.50907189 -1.24546405 -2.58919267 -0.7767578 0 0 Z " fill="#444444" transform="translate(67,90)"/>
<path d="M0 0 C0.96661363 3.12180401 0.98988909 5.52083795 0.5625 8.75 C0.46066406 9.54921875 0.35882813 10.3484375 0.25390625 11.171875 C0.12822266 12.07679687 0.12822266 12.07679687 0 13 C-0.66 13 -1.32 13 -2 13 C-2.66 9.7 -3.32 6.4 -4 3 C-2.68 3 -1.36 3 0 3 C0 2.01 0 1.02 0 0 Z " fill="#F4F4F4" transform="translate(44,86)"/>
<path d="M0 0 C1.32 0.66 2.64 1.32 4 2 C3.67 3.98 3.34 5.96 3 8 C1.35 7.67 -0.3 7.34 -2 7 C-1.34 4.69 -0.68 2.38 0 0 Z " fill="#EAEAEA" transform="translate(80,37)"/>
<path d="M0 0 C1.98 0.495 1.98 0.495 4 1 C4 2.98 4 4.96 4 7 C3.34 7 2.68 7 2 7 C1.34 8.65 0.68 10.3 0 12 C-0.33 12 -0.66 12 -1 12 C-1.02712066 10.56260487 -1.04645067 9.12506137 -1.0625 7.6875 C-1.07410156 6.88699219 -1.08570312 6.08648437 -1.09765625 5.26171875 C-1 3 -1 3 0 0 Z " fill="#E0E0E0" transform="translate(115,35)"/>
<path d="M0 0 C0.66 0 1.32 0 2 0 C2.19392201 5.52677733 1.7479503 9.75614911 0 15 C-0.33 15 -0.66 15 -1 15 C-1.02703381 13.06257659 -1.04641125 11.12504521 -1.0625 9.1875 C-1.07410156 8.10855469 -1.08570313 7.02960938 -1.09765625 5.91796875 C-1 3 -1 3 0 0 Z " fill="#DBDBDB" transform="translate(47,85)"/>
<path d="M0 0 C2.31 0 4.62 0 7 0 C7 0.99 7 1.98 7 3 C7.99 3.33 8.98 3.66 10 4 C7.36 4.66 4.72 5.32 2 6 C0 3 0 3 0 0 Z " fill="#DFDFDF" transform="translate(87,23)"/>
<path d="M0 0 C0.66 1.32 1.32 2.64 2 4 C1.67 4.33 1.34 4.66 1 5 C1.33 5.66 1.66 6.32 2 7 C-0.97 7 -3.94 7 -7 7 C-7 6.34 -7 5.68 -7 5 C-5.02 4.67 -3.04 4.34 -1 4 C-0.67 2.68 -0.34 1.36 0 0 Z " fill="#F2F2F2" transform="translate(114,141)"/>
<path d="M0 0 C0.33 0 0.66 0 1 0 C1 1.98 1 3.96 1 6 C1.99 6 2.98 6 4 6 C4.33 4.68 4.66 3.36 5 2 C6 5 6 5 5.0625 7.1875 C4.5365625 8.0846875 4.5365625 8.0846875 4 9 C2.68 9 1.36 9 0 9 C-1.125 2.25 -1.125 2.25 0 0 Z " fill="#363636" transform="translate(109,136)"/>
<path d="M0 0 C0.98120464 3.05263664 0.98120464 4.94736336 0 8 C-1.98 8.33 -3.96 8.66 -6 9 C-4.68775452 5.06326356 -3.08089673 2.77280706 0 0 Z " fill="#F2F2F2" transform="translate(40,125)"/>
<path d="M0 0 C1.9375 0.625 1.9375 0.625 4 2 C4.75 5.125 4.75 5.125 5 8 C4.34 8 3.68 8 3 8 C2.67 8.99 2.34 9.98 2 11 C1.34 10.34 0.68 9.68 0 9 C0.66 9 1.32 9 2 9 C1.484375 8.2575 0.96875 7.515 0.4375 6.75 C-1 4 -1 4 -0.6875 1.6875 C-0.460625 1.130625 -0.23375 0.57375 0 0 Z " fill="#B0B0B0" transform="translate(91,35)"/>
<path d="M0 0 C0.99 0 1.98 0 3 0 C3.33 2.97 3.66 5.94 4 9 C3.34 9 2.68 9 2 9 C1.67 9.66 1.34 10.32 1 11 C1 10.34 1 9.68 1 9 C0.34 8.67 -0.32 8.34 -1 8 C-0.34 8 0.32 8 1 8 C1 7.01 1 6.02 1 5 C0.01 4.67 -0.98 4.34 -2 4 C-1.01 3.67 -0.02 3.34 1 3 C0.67 2.01 0.34 1.02 0 0 Z " fill="#F5F5F5" transform="translate(94,28)"/>
<path d="M0 0 C0.66 0.33 1.32 0.66 2 1 C2.33 0.67 2.66 0.34 3 0 C4.42944945 2.35438733 5.08661261 3.48032433 4.625 6.25 C4.41875 6.8275 4.2125 7.405 4 8 C3.01 7.67 2.02 7.34 1 7 C1 6.34 1 5.68 1 5 C0.34 5 -0.32 5 -1 5 C-0.67 3.35 -0.34 1.7 0 0 Z " fill="#101010" transform="translate(38,80)"/>
<path d="M0 0 C1.485 0.99 1.485 0.99 3 2 C3.56737589 9.14893617 3.56737589 9.14893617 1 13 C-1.42857143 4.57142857 -1.42857143 4.57142857 0 0 Z " fill="#DADADA" transform="translate(102,107)"/>
<path d="M0 0 C1.32 0.33 2.64 0.66 4 1 C3.67 2.32 3.34 3.64 3 5 C1.35 5.33 -0.3 5.66 -2 6 C-2.33 5.34 -2.66 4.68 -3 4 C-2.01 2.68 -1.02 1.36 0 0 Z " fill="#E5E5E5" transform="translate(111,100)"/>
<path d="M0 0 C0.33 0.66 0.66 1.32 1 2 C1.66 2 2.32 2 3 2 C3 4.64 3 7.28 3 10 C2.34 8.68 1.68 7.36 1 6 C0.34 7.98 -0.32 9.96 -1 12 C-2.45606519 7.47907032 -1.27032841 4.48351204 0 0 Z " fill="#565656" transform="translate(113,116)"/>
<path d="M0 0 C0.33 0 0.66 0 1 0 C1.2954439 5.02254631 0.98514628 7.89542386 -2 12 C-3.65 11.67 -5.3 11.34 -7 11 C-6.67 10.34 -6.34 9.68 -6 9 C-5.01 9 -4.02 9 -3 9 C-2.01 6.03 -1.02 3.06 0 0 Z " fill="#353535" transform="translate(94,116)"/>
<path d="M0 0 C0.66 0 1.32 0 2 0 C1.54942898 2.10266478 1.05358757 3.89639737 0.0625 5.8125 C-1.3736279 8.76923392 -2.14735047 11.83301604 -3 15 C-4.15782198 11.61915982 -3.83835147 9.70336781 -2.625 6.375 C-2.34914063 5.59898438 -2.07328125 4.82296875 -1.7890625 4.0234375 C-1 2 -1 2 0 0 Z " fill="#424242" transform="translate(109,98)"/>
<path d="M0 0 C0.66 0.66 1.32 1.32 2 2 C1.625 4.125 1.625 4.125 1 6 C1.66 6 2.32 6 3 6 C3 6.66 3 7.32 3 8 C1.02 8.33 -0.96 8.66 -3 9 C-2.67 8.401875 -2.34 7.80375 -2 7.1875 C-0.79212012 4.94613529 -0.79212012 4.94613529 -1 2 C-0.67 1.34 -0.34 0.68 0 0 Z " fill="#E7E7E7" transform="translate(104,34)"/>
<path d="M0 0 C0.66 0.99 1.32 1.98 2 3 C2.99 2.67 3.98 2.34 5 2 C3.47291037 5.43595166 1.40072955 8.11912454 -1 11 C-0.67 7.37 -0.34 3.74 0 0 Z " fill="#E1E1E1" transform="translate(49,94)"/>
<path d="M0 0 C1.65 0.33 3.3 0.66 5 1 C5 4.3 5 7.6 5 11 C4.67 11 4.34 11 4 11 C3.67 8.36 3.34 5.72 3 3 C2.01 2.67 1.02 2.34 0 2 C0 2.99 0 3.98 0 5 C-0.66 4.67 -1.32 4.34 -2 4 C-1.34 2.68 -0.68 1.36 0 0 Z " fill="#A8A8A8" transform="translate(46,81)"/>
<path d="M0 0 C0.33 0 0.66 0 1 0 C1 1.65 1 3.3 1 5 C0.01 5 -0.98 5 -2 5 C-2.33 5.99 -2.66 6.98 -3 8 C-3 7.34 -3 6.68 -3 6 C-4.65 6 -6.3 6 -8 6 C-5.60490662 3.10067643 -3.68754757 2.49831724 0 2 C0 1.34 0 0.68 0 0 Z " fill="#C3C3C3" transform="translate(38,61)"/>
<path d="M0 0 C0.33 0.66 0.66 1.32 1 2 C1.66 2 2.32 2 3 2 C3 3.98 3 5.96 3 8 C2.01 8 1.02 8 0 8 C-0.98120464 4.94736336 -0.98120464 3.05263664 0 0 Z " fill="#F3F3F3" transform="translate(116,40)"/>
<path d="M0 0 C0.99 0.33 1.98 0.66 3 1 C4.1875 3.5625 4.1875 3.5625 5 6 C3.02 6 1.04 6 -1 6 C-1.042721 4.33388095 -1.04063832 2.66617115 -1 1 C-0.67 0.67 -0.34 0.34 0 0 Z " fill="#E4E4E4" transform="translate(85,40)"/>
<path d="M0 0 C0.66 0.66 1.32 1.32 2 2 C1.625 4.625 1.625 4.625 1 7 C0.01 7.33 -0.98 7.66 -2 8 C-2.20086443 4.28400809 -2.1519437 3.22791555 0 0 Z " fill="#E3E3E3" transform="translate(68,118)"/>
<path d="M0 0 C0.99 0 1.98 0 3 0 C3 2.64 3 5.28 3 8 C2.34 8 1.68 8 1 8 C1 7.01 1 6.02 1 5 C0.34 5 -0.32 5 -1 5 C-0.67 3.35 -0.34 1.7 0 0 Z " fill="#FCFCFC" transform="translate(131,108)"/>
<path d="M0 0 C4.01715686 4.38235294 4.01715686 4.38235294 3.9375 7.25 C3 9 3 9 0 10 C0 6.7 0 3.4 0 0 Z " fill="#7C7C7C" transform="translate(45,93)"/>
<path d="M0 0 C1.98 1.65 3.96 3.3 6 5 C5.01 5.99 4.02 6.98 3 8 C0.9375 5.6875 0.9375 5.6875 -1 3 C-0.67 2.01 -0.34 1.02 0 0 Z " fill="#EAEAEA" transform="translate(87,35)"/>
<path d="M0 0 C0.66 0.99 1.32 1.98 2 3 C1.125 5.6875 1.125 5.6875 0 8 C-2.97 7.505 -2.97 7.505 -6 7 C-5.67 6.34 -5.34 5.68 -5 5 C-4.01 5 -3.02 5 -2 5 C-1.34 3.35 -0.68 1.7 0 0 Z " fill="#D0D0D0" transform="translate(104,122)"/>
<path d="M0 0 C2 3 2 3 2 6 C1.01 6 0.02 6 -1 6 C-1 5.01 -1 4.02 -1 3 C-1.99 3 -2.98 3 -4 3 C-4 2.34 -4 1.68 -4 1 C-2.68 0.67 -1.36 0.34 0 0 Z " fill="#E9E9E9" transform="translate(99,54)"/>
<path d="M0 0 C2.125 0.9375 2.125 0.9375 4 2 C3.01 2.495 3.01 2.495 2 3 C2.33 3.66 2.66 4.32 3 5 C1.68 5.33 0.36 5.66 -1 6 C-1.33 4.35 -1.66 2.7 -2 1 C-1.34 0.67 -0.68 0.34 0 0 Z " fill="#121212" transform="translate(45,40)"/>
<path d="M0 0 C-0.33 1.65 -0.66 3.3 -1 5 C-2.32 5 -3.64 5 -5 5 C-5 3.68 -5 2.36 -5 1 C-2 0 -2 0 0 0 Z " fill="#EFEFEF" transform="translate(135,39)"/>
<path d="M0 0 C0.66 0.33 1.32 0.66 2 1 C2.625 3.5625 2.625 3.5625 3 6 C2.01 6.33 1.02 6.66 0 7 C0 6.34 0 5.68 0 5 C-0.66 5 -1.32 5 -2 5 C-1.34 3.35 -0.68 1.7 0 0 Z " fill="#E8E8E8" transform="translate(121,120)"/>
<path d="M0 0 C2.125 0.375 2.125 0.375 4 1 C3.67 1.99 3.34 2.98 3 4 C1.35 4.33 -0.3 4.66 -2 5 C-2 2 -2 2 0 0 Z " fill="#E6E6E6" transform="translate(139,115)"/>
<path d="M0 0 C1.10844919 3.32534757 0.84454356 5.62182575 0 9 C-0.33 8.34 -0.66 7.68 -1 7 C-1.66 7 -2.32 7 -3 7 C-2.625 4.0625 -2.625 4.0625 -2 1 C-1.34 0.67 -0.68 0.34 0 0 Z " fill="#DCDCDC" transform="translate(85,110)"/>
<path d="M0 0 C1.98 0 3.96 0 6 0 C6 0.66 6 1.32 6 2 C6.66 2 7.32 2 8 2 C7.67 2.66 7.34 3.32 7 4 C4.9375 4.625 4.9375 4.625 3 5 C3 3.68 3 2.36 3 1 C2.01 0.67 1.02 0.34 0 0 Z " fill="#1D1D1D" transform="translate(31,67)"/>
<path d="M0 0 C2.475 0.99 2.475 0.99 5 2 C5 3.32 5 4.64 5 6 C4.34 6 3.68 6 3 6 C3 5.34 3 4.68 3 4 C2.01 4 1.02 4 0 4 C0 2.68 0 1.36 0 0 Z " fill="#A7A7A7" transform="translate(108,25)"/>
<path d="M0 0 C-0.99 1.485 -0.99 1.485 -2 3 C-2.66 2.67 -3.32 2.34 -4 2 C-4 2.66 -4 3.32 -4 4 C-4.66 4 -5.32 4 -6 4 C-6 2.68 -6 1.36 -6 0 C-3 -1 -3 -1 0 0 Z " fill="#727272" transform="translate(91,21)"/>
<path d="M0 0 C0.33 0 0.66 0 1 0 C1.33 2.31 1.66 4.62 2 7 C0.35 7 -1.3 7 -3 7 C-2.01 4.69 -1.02 2.38 0 0 Z " fill="#CFCFCF" transform="translate(85,120)"/>
<path d="M0 0 C0.33 0.99 0.66 1.98 1 3 C-0.3125 5.5 -0.3125 5.5 -2 8 C-2.66 8.99 -3.32 9.98 -4 11 C-3.56179109 6.44262737 -3.14958831 3.42346555 0 0 Z " fill="#313131" transform="translate(91,98)"/>
<path d="M0 0 C0.33 0.66 0.66 1.32 1 2 C1.66 2 2.32 2 3 2 C2.67 2.99 2.34 3.98 2 5 C-0.97 4.505 -0.97 4.505 -4 4 C-4 3.34 -4 2.68 -4 2 C-2.68 2 -1.36 2 0 2 C0 1.34 0 0.68 0 0 Z " fill="#0D0D0D" transform="translate(29,83)"/>
</svg>
